<?xml version="1.0" encoding="UTF-8" standalone="no"?>
<svg
   xmlns:dc="http://purl.org/dc/elements/1.1/"
   xmlns:cc="http://creativecommons.org/ns#"
   xmlns:rdf="http://www.w3.org/1999/02/22-rdf-syntax-ns#"
   xmlns:svg="http://www.w3.org/2000/svg"
   xmlns="http://www.w3.org/2000/svg"
   viewBox="0 0 600 372.99998"
   height="373"
   width="600"
   xml:space="preserve"
   version="1.1"
   id="svg2"><metadata
     id="metadata8"><rdf:RDF><cc:Work
         rdf:about=""><dc:format>image/svg+xml</dc:format><dc:type
           rdf:resource="http://purl.org/dc/dcmitype/StillImage" /><dc:title></dc:title></cc:Work></rdf:RDF></metadata><defs
     id="defs6" /><g
     transform="matrix(1.25,0,0,-1.25,0,372.99995)"
     id="g10"><g
       transform="matrix(3.3806852,0,0,3.3792036,-95.116797,-2452.8846)"
       id="g6424"><g
         id="g6395"><g
           id="g6390"><path
             id="path28"
             style="fill:#20526b;fill-opacity:1;fill-rule:nonzero;stroke:none"
             d="m 88.575966,778.59731 0,0 c 0.819945,-1.89074 1.489899,-3.77149 2.184852,-5.64222 l -4.368703,0 c 0.59596,1.87073 1.364907,3.75148 2.183851,5.64222 z m 7.124515,-11.20442 0,0 c -1.414903,4.89193 -3.22678,9.76385 -5.411631,14.58576 l -3.37577,0 c -2.159853,-4.89193 -3.97173,-9.69383 -5.411632,-14.58576 l 3.177784,0 c 0.297979,0.97039 0.595959,2.04081 0.893939,3.08122 l 5.932596,0 c 0.29798,-1.04041 0.669954,-2.11083 0.892939,-3.08122 l 3.301775,0 z" /><path
             id="path32"
             style="fill:#20526b;fill-opacity:1;fill-rule:nonzero;stroke:none"
             d="m 102.55301,779.41764 0,0 c 2.52983,0 3.0798,-0.30012 3.0798,-1.96078 0,-2.01079 -0.84995,-2.26089 -3.25978,-2.26089 l -1.85988,0 0,4.22167 2.03986,0 z m -5.114647,-12.02475 0,0 3.074787,0 0,5.34211 2.85981,0 c 2.8498,0 5.33964,0.52021 5.33964,4.64183 0,4.3017 -2.63982,4.60182 -5.70962,4.60182 l -5.564617,0 0,-14.58576 z" /><path
             id="path34"
             style="fill:#20526b;fill-opacity:1;fill-rule:nonzero;stroke:none"
             d="m 111.16243,767.39289 0,0 3.00979,0 0,6.16243 6.39957,0 0,2.48098 -6.39957,0 0,3.38134 7.28951,0 0,2.56101 -10.2993,0 0,-14.58576 z" /></g><g
           id="g6371"><path
             id="path30"
             style="fill:#20526b;fill-opacity:1;fill-rule:nonzero;stroke:none"
             d="m 84.282259,747.43502 0,0 -2.780811,0 0,-14.50572 2.780811,0 0,5.86231 c 0,2.01079 0.470968,2.7811 2.332841,2.7811 1.811877,0 1.811877,-0.77031 1.811877,-3.16125 l 0,-5.48216 2.854805,0 0,6.01237 c 0,3.37133 -0.669954,4.86192 -3.921733,4.86192 -1.042929,0 -2.382838,-0.15006 -3.07779,-1.19047 l 0,4.8219 z" /><path
             id="path44"
             style="fill:#20526b;fill-opacity:1;fill-rule:nonzero;stroke:none"
             d="m 112.60233,732.84927 0,0 2.85981,0 0,6.53257 c 0,3.30131 -0.74995,4.42175 -3.52976,4.42175 -1.95987,0 -2.84981,-0.60024 -3.61976,-1.64065 l 0,1.42056 -2.67981,0 0,-10.73423 2.8498,0 0,5.12202 c 0,2.531 0.22999,3.60142 2.23985,3.60142 1.80988,0 1.87987,-0.92036 1.87987,-2.56101 l 0,-6.16243 z" /><path
             id="path46"
             style="fill:#20526b;fill-opacity:1;fill-rule:nonzero;stroke:none"
             d="m 125.21147,738.2614 0,0 c 0,-2.78109 -0.81994,-3.3013 -2.39983,-3.3013 -1.63989,0 -2.38984,0.52021 -2.38984,3.38133 0,2.23088 0.44997,3.23128 2.45983,3.23128 1.58989,0 2.32984,-0.70028 2.32984,-3.31131 z m 2.77981,-5.3321 0,0 0,14.50572 -2.8498,0 0,-4.75187 c -0.51997,0.60023 -1.33991,1.12044 -3.14979,1.12044 -2.77981,0 -4.49969,-1.34053 -4.49969,-5.54219 0,-3.45136 1.18992,-5.63222 4.49969,-5.63222 1.4399,0 2.54983,0.15006 3.21978,1.2705 l 0,-0.97038 2.77981,0 z" /><path
             id="path48"
             style="fill:#20526b;fill-opacity:1;fill-rule:nonzero;stroke:none"
             d="m 130.6311,732.9293 0,0 2.84981,0 0,10.6542 -2.84981,0 0,-10.6542 z" /><path
             id="path50"
             style="fill:#20526b;fill-opacity:1;fill-rule:nonzero;stroke:none"
             d="m 130.77109,746.28457 0,0 c -0.28998,-0.82033 -0.07,-1.71068 0.66996,-1.93076 0.66995,-0.15006 1.58989,0.29011 1.96986,1.11043 0.36998,0.82033 0.07,1.72068 -0.59996,1.97078 -0.76994,0.22009 -1.65988,-0.33013 -2.03986,-1.15045 z" /><path
             id="path52"
             style="fill:#20526b;fill-opacity:1;fill-rule:nonzero;stroke:none"
             d="m 145.64008,739.98208 0,0 c -0.28998,2.63104 -1.65989,3.82151 -4.73968,3.82151 -4.26971,0 -5.23964,-2.23088 -5.23964,-5.68224 0,-3.08122 0.81994,-5.49217 5.08965,-5.49217 3.54976,0 4.66969,1.64065 4.88967,4.0516 l -2.8498,0 c -0.08,-1.05042 -0.59996,-1.72068 -2.18986,-1.72068 -1.4099,0 -2.00986,0.52021 -2.00986,3.3013 0,2.69106 0.59996,3.31131 2.15985,3.31131 1.43991,0 1.81988,-0.52021 2.03987,-1.59063 l 2.8498,0 0,0 z" /><path
             id="path54"
             style="fill:#20526b;fill-opacity:1;fill-rule:nonzero;stroke:none"
             d="m 162.39894,738.34143 0,0 c 0,2.38094 0.59996,3.23128 2.37984,3.23128 1.88987,0 2.40983,-0.92036 2.40983,-3.38134 0,-2.26089 -0.44997,-3.23127 -2.32984,-3.23127 -1.85987,0 -2.45983,0.90036 -2.45983,3.38133 z m -2.70982,5.24207 0,0 0,-14.77583 2.85981,0 0,5.01198 c 0.36997,-0.52021 1.11992,-1.19047 3.14979,-1.19047 3.37977,0 4.41969,1.86073 4.41969,5.56219 0,4.34172 -1.48989,5.61222 -4.41969,5.61222 -1.5099,0 -2.54983,-0.30012 -3.29978,-1.34053 l 0,1.12044 -2.70982,0 z" /><path
             id="path56"
             style="fill:#20526b;fill-opacity:1;fill-rule:nonzero;stroke:none"
             d="m 100.51315,743.5835 0,0 0,-1.05041 c -0.741946,1.12044 -1.808873,1.42056 -3.298772,1.42056 -2.9288,0 -4.517692,-1.2705 -4.517692,-5.61222 0,-3.70146 1.141922,-5.56219 4.517692,-5.56219 2.010863,0 2.778811,0.59023 3.148782,1.12044 l 0,-1.05041 2.85981,0 0,10.73423 -2.70982,0 z m -2.553822,-8.47334 0,0 c -1.886872,0 -2.332842,0.90035 -2.332842,3.23127 0,2.38094 0.520965,3.30131 2.406837,3.30131 1.809876,0 2.409837,-0.77031 2.409837,-3.23128 0,-2.40095 -0.599961,-3.3013 -2.483832,-3.3013 z" /><path
             id="path58"
             style="fill:#20526b;fill-opacity:1;fill-rule:nonzero;stroke:none"
             d="m 154.50948,743.5835 0,0 0,-1.05041 c -0.74995,1.12044 -1.81988,1.42056 -3.30978,1.42056 -2.9198,0 -4.50969,-1.2705 -4.50969,-5.61222 0,-3.70146 1.13992,-5.56219 4.50969,-5.56219 2.03986,0 2.77981,0.59023 3.15979,1.12044 l 0,-1.05041 2.8498,0 0,10.73423 -2.69981,0 z m -2.48983,-8.47334 0,0 c -1.95987,0 -2.39984,0.90035 -2.39984,3.23127 0,2.38094 0.61996,3.30131 2.47983,3.30131 1.73988,0 2.40984,-0.77031 2.40984,-3.23128 0,-2.40095 -0.66996,-3.3013 -2.48983,-3.3013 z" /></g><g
           id="g6382"><path
             id="path26"
             style="fill:#20526b;fill-opacity:1;fill-rule:nonzero;stroke:none"
             d="m 119.28188,750.11608 0,0 2.8598,0 0,6.55258 c 0,3.23128 -0.74995,4.42175 -3.52976,4.42175 -1.95987,0 -2.77981,-0.60024 -3.59975,-1.66066 l 0,1.44057 -2.70982,0 0,-10.75424 2.85981,0 0,5.11201 c 0,2.48098 0.21998,3.52139 2.25984,3.52139 1.78988,0 1.85988,-0.81032 1.85988,-2.48097 l 0,-6.15243 z" /><path
             id="path36"
             style="fill:#20526b;fill-opacity:1;fill-rule:nonzero;stroke:none"
             d="m 95.849471,750.11608 0,0 0,3.99157 c 0,2.39095 0.14899,4.27169 2.407836,4.27169 0.59596,0 0.893939,-0.07 0.893939,-0.07 l 0,2.70107 c 0,0 -0.223984,0.08 -0.670954,0.08 -1.414904,0 -2.183851,-0.45018 -2.779811,-1.59063 l 0,1.37054 -2.705815,0 0,-10.75424 2.854805,0 z" /><path
             id="path38"
             style="fill:#20526b;fill-opacity:1;fill-rule:nonzero;stroke:none"
             d="m 81.501448,750.11608 0,0 3.003796,0 0,6.15243 6.404564,0 0,2.48097 -6.404564,0 0,3.46137 7.298503,0 0,2.48098 -10.302299,0 0,-14.57575 z" /><path
             id="path40"
             style="fill:#20526b;fill-opacity:1;fill-rule:nonzero;stroke:none"
             d="m 134.22086,757.2689 0,0 c -0.28998,2.55101 -1.62989,3.82151 -4.70968,3.82151 -4.29971,0 -5.25964,-2.34093 -5.25964,-5.71226 0,-3.08121 0.80994,-5.49216 5.10965,-5.49216 3.51976,0 4.63968,1.67066 4.85967,4.0716 l -2.84981,0 c -0.07,-1.14045 -0.59996,-1.73068 -2.17985,-1.73068 -1.4199,0 -2.01986,0.52021 -2.01986,3.22127 0,2.7811 0.59996,3.3013 2.18985,3.3013 1.4099,0 1.78988,-0.5202 2.00986,-1.48058 l 2.84981,0 0,0 z" /><path
             id="path42"
             style="fill:#20526b;fill-opacity:1;fill-rule:nonzero;stroke:none"
             d="m 139.19052,756.4986 0,0 c 0.07,1.73068 0.51996,2.25088 2.17985,2.25088 1.26992,0 2.08986,-0.29011 2.15985,-2.25088 l -4.3397,0 z m 4.18972,-3.31131 0,0 c -0.28999,-0.81032 -0.95994,-0.96038 -2.00987,-0.96038 -1.57989,0 -2.10985,0.44017 -2.24984,2.48098 l 7.2695,0 c 0,4.64183 -1.11992,6.38252 -4.86967,6.38252 -4.51969,0 -5.32964,-2.41095 -5.32964,-5.49217 0,-4.5718 1.85988,-5.71225 5.17965,-5.71225 2.9298,0 4.56969,0.85033 4.93967,3.3013 l -2.9298,0 z" /><path
             id="path60"
             style="fill:#20526b;fill-opacity:1;fill-rule:nonzero;stroke:none"
             d="m 107.49268,760.87032 0,0 0,-1.05041 c -0.74995,1.12044 -1.78988,1.42056 -3.29978,1.42056 -2.9298,0 -4.495691,-1.2705 -4.495691,-5.64223 0,-3.67145 1.115921,-5.63222 4.495691,-5.63222 2.02986,0 2.77981,0.69027 3.14979,1.21048 l 0,-1.06042 2.8498,0 0,10.75424 -2.69981,0 z m -2.47983,-8.57338 0,0 c -1.93987,0 -2.38984,0.97038 -2.38984,3.3013 0,2.41095 0.51996,3.3013 2.45983,3.3013 1.73988,0 2.40984,-0.82032 2.40984,-3.22127 0,-2.41095 -0.66996,-3.38133 -2.47983,-3.38133 z" /></g></g><g
         id="g6418"><path
           d="m 53.799334,772.735 0,0 c -6.45356,-0.22009 -12.610141,-3.00118 -17.201829,-7.37291 28.174082,13.53534 37.333459,-7.80308 37.631438,-8.94353 -1.414903,9.71384 -9.681341,16.61656 -20.429609,16.31644 z"
           style="fill:#f79e1c;fill-opacity:1;fill-rule:nonzero;stroke:none"
           id="path62" /><path
           d="m 81.427453,795.0338 0,0 c -3.07779,1.34052 -7.273505,-0.37015 -9.457356,-3.82151 -2.084858,-3.5514 -1.265914,-7.45294 1.811877,-8.79347 3.07779,-1.36054 7.273504,0.38015 9.383361,3.83151 2.109856,3.52139 1.339909,7.42293 -1.737882,8.78347 z"
           style="fill:#f79e1c;fill-opacity:1;fill-rule:nonzero;stroke:none"
           id="path64" /><path
           d="m 73.781974,770.55414 0,0 c -4.964662,4.8119 -20.205625,23.95945 -18.914713,29.6717 1.414904,6.23246 10.574281,11.32447 19.137697,13.95551 -1.364907,-0.22009 -2.481831,-0.44018 -3.52476,-0.74029 -9.382361,-2.48098 -19.162695,-7.82309 -20.726588,-14.42569 -1.290913,-5.64223 3.747744,-12.02475 9.308366,-17.4869 3.450765,-3.40134 -3.747745,-1.14045 -9.829331,-4.74187 0,0 0,0 0,0 9.680341,3.90154 28.297073,-9.91391 24.549329,-6.23246 z"
           style="fill:#20526b;fill-opacity:1;fill-rule:nonzero;stroke:none"
           id="path66" /><path
           d="m 66.558465,748.32537 0,0 c -1.116923,-8.27326 -8.861396,-14.9559 -17.17783,-14.9559 -8.340432,0 -14.198033,6.68264 -13.007114,14.9559 1.141922,8.24325 8.862396,14.9459 17.202828,14.9459 8.340432,0 14.198034,-6.70265 12.982116,-14.9459 z m 7.223509,5.48216 0,0 c -0.44697,2.09083 -9.978321,22.3088 -36.787496,10.134 -4.517692,-4.04159 -7.744472,-9.53376 -8.638412,-15.61616 -1.737881,-12.39489 6.975526,-22.44885 19.510672,-22.44885 12.536147,0 24.103359,10.05396 25.840241,22.44885 0.297979,1.86074 0.297979,3.75148 0.075,5.48216 z"
           style="fill:#20526b;fill-opacity:1;fill-rule:nonzero;stroke:none"
           id="path68" /></g></g></g></svg>