<svg width="73" height="80" viewBox="0 0 73 80" fill="none" xmlns="http://www.w3.org/2000/svg">
<g filter="url(#filter0_d_1479_2)">
<path d="M64 27.3397C70.6667 31.1887 70.6667 40.8113 64 44.6603L19 70.641C12.3333 74.49 4 69.6788 4 61.9808L4 10.0192C4 2.32124 12.3333 -2.49002 19 1.35898L64 27.3397Z" fill="white"/>
<path d="M63 29.0723C68.2498 32.1034 68.3319 39.6093 63.2461 42.7803L63 42.9277L18 68.9092C12.6667 71.9883 6 68.1388 6 61.9805L6 10.0195C6 3.86116 12.6667 0.0117174 18 3.09082L63 29.0723Z" stroke="black" stroke-width="4"/>
</g>
<defs>
<filter id="filter0_d_1479_2" x="0" y="0.00390625" width="73" height="79.9922" filterUnits="userSpaceOnUse" color-interpolation-filters="sRGB">
<feFlood flood-opacity="0" result="BackgroundImageFix"/>
<feColorMatrix in="SourceAlpha" type="matrix" values="0 0 0 0 0 0 0 0 0 0 0 0 0 0 0 0 0 0 127 0" result="hardAlpha"/>
<feOffset dy="4"/>
<feGaussianBlur stdDeviation="2"/>
<feComposite in2="hardAlpha" operator="out"/>
<feColorMatrix type="matrix" values="0 0 0 0 0 0 0 0 0 0 0 0 0 0 0 0 0 0 0.25 0"/>
<feBlend mode="normal" in2="BackgroundImageFix" result="effect1_dropShadow_1479_2"/>
<feBlend mode="normal" in="SourceGraphic" in2="effect1_dropShadow_1479_2" result="shape"/>
</filter>
</defs>
</svg>
